<svg id="visual" viewBox="0 0 960 540" width="960" height="540" xmlns="http://www.w3.org/2000/svg" xmlns:xlink="http://www.w3.org/1999/xlink" version="1.1"><rect x="0" y="0" width="960" height="540" fill="#4EB7F2"></rect><defs><linearGradient id="grad1_0" x1="43.8%" y1="100%" x2="100%" y2="0%"><stop offset="14.444444444444446%" stop-color="#4eb7f2" stop-opacity="1"></stop><stop offset="85.55555555555554%" stop-color="#4eb7f2" stop-opacity="1"></stop></linearGradient></defs><defs><linearGradient id="grad2_0" x1="0%" y1="100%" x2="56.3%" y2="0%"><stop offset="14.444444444444446%" stop-color="#4eb7f2" stop-opacity="1"></stop><stop offset="85.55555555555554%" stop-color="#4eb7f2" stop-opacity="1"></stop></linearGradient></defs><g transform="translate(960, 540)"><path d="M-351 0C-309.7 -42.5 -268.3 -84.9 -244.2 -141C-220.1 -197.1 -213.3 -266.7 -175.5 -304C-137.7 -341.2 -68.8 -346.1 0 -351L0 0Z" fill="#40aae8"></path></g><g transform="translate(0, 0)"><path d="M351 0C348.1 72.2 345.1 144.4 304 175.5C262.8 206.6 183.5 196.7 126.5 219.1C69.5 241.5 34.7 296.3 0 351L0 0Z" fill="#40aae8"></path></g></svg>